<svg width="18" height="19" viewBox="0 0 18 19" fill="none" xmlns="http://www.w3.org/2000/svg">
<path d="M1 3.5C1 2.96957 1.21071 2.46086 1.58579 2.08579C1.96086 1.71071 2.46957 1.5 3 1.5H5C5.53043 1.5 6.03914 1.71071 6.41421 2.08579C6.78929 2.46086 7 2.96957 7 3.5V5.5C7 6.03043 6.78929 6.53914 6.41421 6.91421C6.03914 7.28929 5.53043 7.5 5 7.5H3C2.46957 7.5 1.96086 7.28929 1.58579 6.91421C1.21071 6.53914 1 6.03043 1 5.5V3.5ZM11 3.5C11 2.96957 11.2107 2.46086 11.5858 2.08579C11.9609 1.71071 12.4696 1.5 13 1.5H15C15.5304 1.5 16.0391 1.71071 16.4142 2.08579C16.7893 2.46086 17 2.96957 17 3.5V5.5C17 6.03043 16.7893 6.53914 16.4142 6.91421C16.0391 7.28929 15.5304 7.5 15 7.5H13C12.4696 7.5 11.9609 7.28929 11.5858 6.91421C11.2107 6.53914 11 6.03043 11 5.5V3.5ZM1 13.5C1 12.9696 1.21071 12.4609 1.58579 12.0858C1.96086 11.7107 2.46957 11.5 3 11.5H5C5.53043 11.5 6.03914 11.7107 6.41421 12.0858C6.78929 12.4609 7 12.9696 7 13.5V15.5C7 16.0304 6.78929 16.5391 6.41421 16.9142C6.03914 17.2893 5.53043 17.5 5 17.5H3C2.46957 17.5 1.96086 17.2893 1.58579 16.9142C1.21071 16.5391 1 16.0304 1 15.5V13.5ZM11 13.5C11 12.9696 11.2107 12.4609 11.5858 12.0858C11.9609 11.7107 12.4696 11.5 13 11.5H15C15.5304 11.5 16.0391 11.7107 16.4142 12.0858C16.7893 12.4609 17 12.9696 17 13.5V15.5C17 16.0304 16.7893 16.5391 16.4142 16.9142C16.0391 17.2893 15.5304 17.5 15 17.5H13C12.4696 17.5 11.9609 17.2893 11.5858 16.9142C11.2107 16.5391 11 16.0304 11 15.5V13.5Z" stroke="black" stroke-width="2" stroke-linecap="round" stroke-linejoin="round"/>
</svg>
