<svg width="20" height="21" viewBox="0 0 20 21" fill="none" xmlns="http://www.w3.org/2000/svg">
<path fill-rule="evenodd" clip-rule="evenodd" d="M5.293 7.79296C5.48053 7.60549 5.73484 7.50017 6 7.50017C6.26516 7.50017 6.51947 7.60549 6.707 7.79296L10 11.086L13.293 7.79296C13.3852 7.69745 13.4956 7.62127 13.6176 7.56886C13.7396 7.51645 13.8708 7.48886 14.0036 7.48771C14.1364 7.48655 14.2681 7.51186 14.391 7.56214C14.5139 7.61242 14.6255 7.68667 14.7194 7.78056C14.8133 7.87446 14.8875 7.98611 14.9378 8.10901C14.9881 8.2319 15.0134 8.36358 15.0123 8.49636C15.0111 8.62914 14.9835 8.76036 14.9311 8.88236C14.8787 9.00437 14.8025 9.11471 14.707 9.20696L10.707 13.207C10.5195 13.3944 10.2652 13.4997 10 13.4997C9.73484 13.4997 9.48053 13.3944 9.293 13.207L5.293 9.20696C5.10553 9.01943 5.00021 8.76512 5.00021 8.49996C5.00021 8.23479 5.10553 7.98049 5.293 7.79296Z" fill="black"/>
</svg>
